<svg data-v-0dd9719b="" version="1.0" xmlns="http://www.w3.org/2000/svg" xmlns:xlink="http://www.w3.org/1999/xlink" width="100%" height="100%" viewBox="0 0 340.000000 250.000000" preserveAspectRatio="xMidYMid meet" color-interpolation-filters="sRGB" style="margin: auto;"> <rect data-v-0dd9719b="" x="0" y="0" width="100%" height="100%" fill="#fff" fill-opacity="1" class="background"></rect> <rect data-v-0dd9719b="" x="0" y="0" width="100%" height="100%" fill="url(#watermark)" fill-opacity="1" class="watermarklayer"></rect> <g data-v-0dd9719b="" fill="#40433d" class="icon-text-wrapper icon-svg-group iconsvg" transform="translate(47.51000213623047,96.32374572753906)"><g class="iconsvg-imagesvg" transform="translate(0,0.12874794006347656)"><g><rect fill="#40433d" fill-opacity="0" stroke-width="2" x="0" y="0" width="60" height="57.09500609013398" class="image-rect"></rect> <svg x="0" y="0" width="60" height="57.09500609013398" filtersec="colorsb9735782919" class="image-svg-svg primary" style="overflow: visible;"><svg xmlns="http://www.w3.org/2000/svg" viewBox="-0.020000457763671875 0 85.71000671386719 81.55999755859375"><path d="M26.98 27.23l-27 3.92 19.85 19.28a39.61 39.61 0 0 1 20-18.56 37.52 37.52 0 0 0-12.38-4.73z" fill="#40433d"></path><path d="M20.98 54.68l-4.61 26.88 24.46-12.88a39.61 39.61 0 0 1-11.46-24.77 37.37 37.37 0 0 0-8.32 10.32c-.02.14-.05.3-.07.45z" fill="#ea5223"></path><path d="M45.24 68.86l24.13 12.69-4.67-27.26a39.6 39.6 0 0 1-27.1 3.25 37.41 37.41 0 0 0 7.23 11.1 4 4 0 0 0 .41.22z" fill="#40433d"></path><path d="M66.16 50.17l19.53-19-27.37-4a39.62 39.62 0 0 1-5.29 26.78 37.62 37.62 0 0 0 12.8-3.45z" fill="#ea5223"></path><path d="M54.92 24.46L42.83 0 30.59 24.81A39.57 39.57 0 0 1 54.43 38.1a37.54 37.54 0 0 0 .67-13.23c-.04-.14-.1-.28-.18-.41z" fill="#009c98"></path></svg></svg> <!----></g></g> <g transform="translate(67,0)"><g data-gra="path-name" fill-rule="" class="tp-name iconsvg-namesvg" transform="translate(0,0)"><g transform="scale(1)"><g><path d="M33.09-7.56L33.09-7.56 24.7-7.56 24.7 1.58Q24.65 1.71 24.19 1.96 23.73 2.2 22.7 2.44 21.67 2.68 20.48 2.68L20.48 2.68 19.56 2.68 19.56-7.56 11.47-7.56 11.12-8.88 19.56-8.88 19.56-14.33 11.87-14.33 11.51-15.56 23.55-15.56Q24.83-19.38 25.58-23.38L25.58-23.38 31.64-21.71Q31.33-20.79 29.93-20.83L29.93-20.83Q27.25-17.71 24.87-15.56L24.87-15.56 27.77-15.56 29.93-18.19Q32.43-16.39 34.01-15.03L34.01-15.03Q33.84-14.33 32.78-14.33L32.78-14.33 24.7-14.33 24.7-8.88 27.47-8.88 29.84-11.87Q32.61-9.76 34.32-8.26L34.32-8.26Q34.15-7.56 33.09-7.56ZM13.8-23.03L13.8-23.03 14.24-23.25Q19.38-22.1 20.3-19.34L20.3-19.34Q20.87-17.62 19.6-16.52L19.6-16.52Q18.24-15.34 16.52-16.44L16.52-16.44Q16.26-16.57 16.04-16.79L16.04-16.79Q16-19.91 13.8-23.03ZM42.36-30.54L42.36-30.54 24.96-30.54 24.96-25.18 34.85-25.18 37.27-27.95 42.41-23.95Q41.75-23.2 40.56-23.03L40.56-23.03 40.56-1.98Q40.56 0.92 39.22 2.31 37.88 3.69 33.62 4.04L33.62 4.04Q33.4 1.36 32.52 0.44L32.52 0.44Q31.16-0.92 28.43-1.32L28.43-1.32 28.43-1.93Q33.09-1.58 34.28-1.58L34.28-1.58Q35.29-1.58 35.29-2.5L35.29-2.5 35.29-23.91 9.8-23.91 9.8 2.11Q9.8 2.64 8.37 3.32 6.94 4 5.41 4L5.41 4 4.53 4 4.53-27.51 10.2-25.18 19.6-25.18 19.6-30.54 1.8-30.54 1.45-31.82 19.6-31.82 19.6-38.1 26.63-37.53Q26.5-36.47 24.96-36.25L24.96-36.25 24.96-31.82 34.85-31.82 37.92-35.73Q41.44-33.13 43.64-31.29L43.64-31.29Q43.42-30.54 42.36-30.54ZM81.04-30.19L81.04-30.19 54.18-30.19Q54.54-25.05 51.42-22.81L51.42-22.81Q50.32-21.93 48.87-22.19 47.42-22.46 46.89-23.73L46.89-23.73Q46.49-24.87 46.98-25.86 47.46-26.85 48.56-27.47L48.56-27.47Q50.14-28.3 51.39-30.15 52.65-31.99 52.69-34.15L52.69-34.15 53.31-34.15Q53.88-32.34 54.01-31.51L54.01-31.51 64.78-31.51 64.78-38.23 71.85-37.66Q71.72-36.61 70.18-36.39L70.18-36.39 70.18-31.51 80.77-31.51 83.63-34.28 88.46-29.66Q88.02-29.22 86.7-29.09L86.7-29.09Q83.54-25.93 79.76-23.64L79.76-23.64 79.32-23.91Q80.33-26.98 81.04-30.19ZM47.5-20.39L79.94-20.39 82.97-24.35Q86.4-21.67 88.51-19.82L88.51-19.82Q88.29-19.07 87.23-19.07L87.23-19.07 70.36-19.07 70.36-2.68Q70.36 0.44 68.82 2.07 67.28 3.69 62.71 4L62.71 4Q62.49 1.1 61.48 0.04L61.48 0.04Q59.99-1.32 56.6-1.85L56.6-1.85 56.6-2.42Q62.53-2.02 63.72-2.02L63.72-2.02Q64.78-2.02 64.78-2.9L64.78-2.9 64.78-19.07 47.94-19.07 47.5-20.39ZM125.55-32.52L125.55-32.52 95.49-32.52 95.14-33.84 125.33-33.84 128.23-36.65 133.11-32.26Q132.71-31.77 131.35-31.73L131.35-31.73Q126.96-27.86 124.45-26.06L124.45-26.06 123.97-26.06Q124.67-28.52 125.55-32.52ZM99.54-29.36L99.54-29.36 99.84-29.71Q107.18-29.93 109.91-26.81L109.91-26.81Q111.45-25.05 110.65-23.33L110.65-23.33Q109.91-21.8 108.02-22.06L108.02-22.06Q107.62-22.1 107.23-22.24L107.23-22.24Q106.08-23.99 103.84-26.04 101.6-28.08 99.54-29.36ZM96.11-21.8L96.11-21.8 96.42-22.15Q104.19-22.5 107.14-19.25L107.14-19.25Q108.76-17.4 108.06-15.56L108.06-15.56Q107.4-13.93 105.56-13.97L105.56-13.97Q104.94-14.02 104.33-14.24L104.33-14.24Q103.14-16.22 100.77-18.35 98.39-20.48 96.11-21.8ZM132.58-11.47L132.58-11.47 117.16-11.47Q116.63-10.06 116.32-9.4L116.32-9.4Q128.06-6.9 131.84-1.98L131.84-1.98Q133.81 0.62 132.8 2.59L132.8 2.59Q132.01 4.13 130.17 3.82L130.17 3.82Q129.51 3.74 128.85 3.34L128.85 3.34Q127.27 0.79 123.79-2.5 120.32-5.8 115.88-8.53L115.88-8.53Q113.42-4.17 108.13-1.08 102.83 2.02 93.3 4.17L93.3 4.17 92.99 3.56Q101.25 0.66 105.6-2.99 109.95-6.64 111.67-11.47L111.67-11.47 92.55-11.47 92.2-12.79 112.06-12.79Q112.37-13.84 112.59-14.96 112.81-16.08 112.94-17.47 113.07-18.85 113.16-19.82 113.25-20.79 113.27-22.59 113.29-24.39 113.29-25.2 113.29-26.02 113.29-28.21 113.29-30.41 113.29-31.16L113.29-31.16 120.67-30.45Q120.45-29.4 119-29.22L119-29.22Q119-28.83 118.96-26.65 118.92-24.48 118.89-23.95 118.87-23.42 118.81-21.67 118.74-19.91 118.65-19.14 118.56-18.37 118.43-17.05 118.3-15.73 118.08-14.74 117.86-13.75 117.6-12.79L117.6-12.79 124.94-12.79 128.1-16.88Q131.7-14.11 133.86-12.22L133.86-12.22Q133.64-11.47 132.58-11.47ZM154.91-35.02L154.91-35.02 160.14-30.23Q159.35-29.53 157.32-30.23L157.32-30.23Q154.03-29.31 150.73-28.78L150.73-28.78 150.73-21.4 152.31-21.4 154.86-24.87Q157.72-22.54 159.43-20.87L159.43-20.87Q159.26-20.17 158.2-20.17L158.2-20.17 150.73-20.17 150.73-16.48Q150.73-15.51 150.64-13.84L150.64-13.84Q152.62-14.19 159.74-15.6L159.74-15.6 159.83-15.03Q156.18-13.18 150.25-10.77L150.25-10.77Q149.28-5.63 146.32-1.98 143.35 1.67 137.72 4.04L137.72 4.04 137.33 3.6Q143.22-1.1 144.89-8.61L144.89-8.61Q140.98-7.12 139.92-6.72L139.92-6.72Q139.61-5.76 138.69-5.63L138.69-5.63 136.36-11.43Q138.38-11.65 145.5-12.92L145.5-12.92Q145.63-14.63 145.63-16.48L145.63-16.48 145.63-20.17 138.38-20.17 138.03-21.4 145.63-21.4 145.63-28.13Q141.02-27.64 136.71-27.64L136.71-27.64 136.63-28.17Q141.15-29.14 145.63-30.72L145.63-30.72 145.63-38.14 152.31-37.49Q152.18-36.43 150.73-36.21L150.73-36.21 150.73-32.78Q153.11-33.88 154.91-35.02ZM167.17-7.43L170.51-7.43Q172.75-7.43 172.75-10.37L172.75-10.37Q172.75-15.95 168.62-20.35L168.62-20.35Q170.6-26.76 171.65-32.92L171.65-32.92 166.16-32.92 166.16 2.42Q166.16 2.64 165.65 3.01 165.15 3.38 164.14 3.74 163.13 4.09 161.94 4.09L161.94 4.09 161.06 4.09 161.06-36.87 166.77-34.15 171.3-34.15 174.16-36.91 179.43-31.99Q178.99-31.42 177.36-31.38L177.36-31.38Q173.06-24.21 169.8-20.48L169.8-20.48Q173.76-18.24 175.76-15.07 177.76-11.91 177.76-8.79L177.76-8.79Q177.76-5.23 176-3.32 174.24-1.41 170.24-1.32L170.24-1.32Q170.24-4.44 169.54-5.67L169.54-5.67Q168.84-6.55 167.17-6.86L167.17-6.86 167.17-7.43Z" transform="translate(-1.4500000476837158, 38.22999954223633)"></path></g> <!----> <!----> <!----> <!----> <!----> <!----> <!----></g></g> <g data-gra="path-slogan" fill-rule="" class="tp-slogan iconsvg-slogansvg" fill="#40433d" transform="translate(5,48.400001525878906)"><rect x="0" height="1" y="3.9750003814697266" width="25.089996337890625"></rect> <rect height="1" y="3.9750003814697266" width="25.089996337890625" x="142.88999938964844"></rect> <g transform="translate(28.089996337890625,0)"><g transform="scale(1)"><path d="M2.30-8.58L6.61-1.64L6.61-8.58L7.73-8.58L7.73 0L6.42 0L2.06-6.94L2.02-6.94L2.02 0L0.89 0L0.89-8.58L2.30-8.58ZM15.19 0L14.34-2.48L10.88-2.48L9.98 0L8.81 0L12.05-8.58L13.36-8.58L16.45 0L15.19 0ZM12.61-7.31L11.25-3.52L13.92-3.52L12.66-7.31L12.61-7.31ZM18.89-8.58L23.20-1.64L23.20-8.58L24.33-8.58L24.33 0L23.02 0L18.66-6.94L18.61-6.94L18.61 0L17.48 0L17.48-8.58L18.89-8.58ZM27.52-8.58L31.83-1.64L31.83-8.58L32.95-8.58L32.95 0L31.64 0L27.28-6.94L27.23-6.94L27.23 0L26.11 0L26.11-8.58L27.52-8.58ZM34.92-8.58L36.09-8.58L36.09 0L34.92 0L34.92-8.58ZM39.47-8.58L43.78-1.64L43.78-8.58L44.91-8.58L44.91 0L43.59 0L39.23-6.94L39.19-6.94L39.19 0L38.06 0L38.06-8.58L39.47-8.58ZM53.11-3.61L50.48-3.61L50.48-4.59L54.23-4.59L54.23 0L53.48 0L53.20-1.08Q52.22 0.09 50.39 0.14L50.39 0.14Q48.66 0.14 47.72-0.75L47.72-0.75Q46.31-2.06 46.36-4.36L46.36-4.36Q46.69-8.63 50.44-8.81L50.44-8.81Q53.63-8.63 54.09-6L54.09-6L52.97-6Q52.50-7.78 50.39-7.83L50.39-7.83Q47.72-7.64 47.58-4.31L47.58-4.31Q47.58-0.75 50.44-0.75L50.44-0.75Q51.47-0.75 52.22-1.31L52.22-1.31Q53.16-2.06 53.11-3.61L53.11-3.61ZM67.59-8.58L67.59 0L66.47 0L66.47-5.06Q66.47-5.77 66.47-7.22L66.47-7.22L64.03 0L62.86 0L60.47-7.22L60.42-7.22Q60.42-6.70 60.47-5.67L60.47-5.67Q60.47-5.16 60.47-5.06L60.47-5.06L60.47 0L59.30 0L59.30-8.58L60.98-8.58L63.47-1.31L65.91-8.58L67.59-8.58ZM74.95 0L74.11-2.48L70.64-2.48L69.75 0L68.58 0L71.81-8.58L73.13-8.58L76.22 0L74.95 0ZM72.38-7.31L71.02-3.52L73.69-3.52L72.42-7.31L72.38-7.31ZM77.44-8.58L78.61-8.58L78.61 0L77.44 0L77.44-8.58ZM83.81-7.64L81.75-7.64L81.75-4.97L83.81-4.97Q85.64-4.92 85.59-6.38L85.59-6.38Q85.59-7.64 83.81-7.64L83.81-7.64ZM84.28 0L80.58 0L80.58-8.58L84.38-8.58Q86.67-8.48 86.77-6.42L86.77-6.42Q86.77-5.16 85.64-4.64L85.64-4.64Q87.23-4.08 87.23-2.53L87.23-2.53Q87.09-0.09 84.28 0L84.28 0ZM84-3.98L81.75-3.98L81.75-0.98L84.23-0.98Q86.02-1.03 86.06-2.53L86.06-2.53Q86.06-3.98 84-3.98L84-3.98ZM94.22 0L93.38-2.48L89.91-2.48L89.02 0L87.84 0L91.08-8.58L92.39-8.58L95.48 0L94.22 0ZM91.64-7.31L90.28-3.52L92.95-3.52L91.69-7.31L91.64-7.31ZM97.92-8.58L102.23-1.64L102.23-8.58L103.36-8.58L103.36 0L102.05 0L97.69-6.94L97.64-6.94L97.64 0L96.52 0L96.52-8.58L97.92-8.58ZM111.56-3.61L108.94-3.61L108.94-4.59L112.69-4.59L112.69 0L111.94 0L111.66-1.08Q110.67 0.09 108.84 0.14L108.84 0.14Q107.11 0.14 106.17-0.75L106.17-0.75Q104.77-2.06 104.81-4.36L104.81-4.36Q105.14-8.63 108.89-8.81L108.89-8.81Q112.08-8.63 112.55-6L112.55-6L111.42-6Q110.95-7.78 108.84-7.83L108.84-7.83Q106.17-7.64 106.03-4.31L106.03-4.31Q106.03-0.75 108.89-0.75L108.89-0.75Q109.92-0.75 110.67-1.31L110.67-1.31Q111.61-2.06 111.56-3.61L111.56-3.61Z" transform="translate(-0.890625, 8.8125)"></path></g></g></g></g></g><defs v-gra="od"></defs></svg>